<?xml version="1.0" standalone="no"?>
<!DOCTYPE svg PUBLIC "-//W3C//DTD SVG 20010904//EN"
 "http://www.w3.org/TR/2001/REC-SVG-20010904/DTD/svg10.dtd">
<svg version="1.0" xmlns="http://www.w3.org/2000/svg"
 width="500.000000pt" height="500.000000pt" viewBox="0 0 500.000000 500.000000"
 preserveAspectRatio="xMidYMid meet">

<g transform="translate(0.000000,500.000000) scale(0.100000,-0.100000)"
fill="#000000" stroke="none">
<path d="M2973 4289 c-6 -6 -59 -13 -117 -16 l-107 -6 -36 -66 c-20 -36 -50
-86 -67 -111 -18 -25 -53 -82 -80 -127 -26 -46 -50 -83 -53 -83 -3 0 -18 11
-35 25 -16 14 -36 25 -44 25 -16 0 -19 16 -5 24 17 11 22 74 8 108 -25 58 -60
82 -123 82 -52 1 -58 -2 -90 -36 -28 -31 -34 -46 -34 -80 0 -72 46 -128 118
-143 17 -4 32 -9 32 -13 0 -3 -12 -18 -26 -33 -16 -17 -32 -52 -42 -95 -15
-59 -20 -69 -41 -72 -21 -3 -23 -1 -17 25 21 95 19 127 -12 189 -37 74 -77
115 -216 224 -118 93 -143 105 -237 115 -55 5 -70 3 -109 -17 -52 -27 -92 -81
-88 -119 3 -31 -9 -46 -105 -132 -58 -51 -74 -60 -113 -64 -89 -7 -155 -78
-162 -173 -4 -68 22 -147 78 -236 22 -35 40 -65 40 -68 0 -2 -20 -1 -44 1
l-44 5 -162 -163 c-242 -244 -253 -266 -177 -360 23 -28 57 -73 76 -98 19 -25
49 -63 68 -84 48 -54 44 -62 -35 -63 -44 0 -95 -10 -150 -28 -45 -15 -82 -28
-82 -30 0 -1 21 -58 46 -127 56 -152 136 -384 158 -460 21 -73 64 -113 140
-130 31 -7 56 -14 56 -17 0 -3 -27 -30 -60 -61 -52 -49 -60 -61 -60 -93 0 -46
47 -110 111 -153 24 -16 56 -37 69 -46 l25 -17 -122 -125 c-123 -125 -141
-155 -112 -184 8 -8 8 -17 0 -31 -15 -29 -14 -87 3 -101 11 -9 27 -7 72 9 69
24 64 23 64 6 0 -21 35 -29 62 -15 13 6 52 35 88 62 36 28 71 55 78 60 8 6 12
5 12 -3 0 -6 -43 -56 -95 -110 -102 -106 -125 -144 -125 -213 0 -113 109 -138
213 -51 18 15 94 86 170 158 125 118 169 155 189 156 3 0 9 -19 13 -42 20
-116 46 -142 248 -244 135 -67 154 -68 243 -9 36 25 70 45 74 45 4 0 11 -15
14 -32 15 -83 88 -140 176 -140 88 0 161 60 183 151 6 28 16 51 22 51 6 0 38
-9 70 -21 129 -46 291 -4 396 101 44 44 67 89 89 178 l11 43 61 -48 c33 -26
74 -65 91 -85 45 -56 86 -72 174 -65 l73 5 58 -42 c48 -35 132 -137 132 -160
0 -3 11 -29 24 -58 13 -29 29 -70 36 -90 17 -56 33 -48 28 15 -6 71 -79 232
-151 333 -57 80 -58 81 -61 160 -1 43 -8 90 -16 104 -7 14 -49 63 -92 110
l-80 85 63 13 c92 18 175 78 205 148 30 71 27 147 -10 235 -6 13 1 18 31 23
56 9 119 41 138 69 11 17 19 62 24 136 9 109 9 110 76 243 37 73 83 161 102
196 20 36 32 67 27 72 -14 12 -152 49 -214 56 -43 5 -59 3 -68 -9 -11 -13 -16
-11 -40 13 -17 17 -44 30 -70 35 -23 4 -42 9 -42 11 0 2 18 27 40 56 55 73 80
143 80 228 0 93 -30 172 -87 229 -24 25 -42 49 -40 55 3 6 50 71 106 143 122
161 130 177 138 256 5 61 4 65 -27 101 -104 118 -214 84 -365 -113 l-40 -52
-8 33 c-40 169 -98 240 -229 284 -71 23 -177 15 -243 -19 -76 -38 -134 -84
-157 -123 -20 -34 -48 -46 -48 -20 0 28 41 108 111 218 l72 111 -13 46 c-7 25
-13 67 -14 94 l-1 47 -18 -25 c-19 -25 -37 -33 -37 -16 0 5 12 23 26 40 l26
31 -24 0 c-13 0 -29 -5 -35 -11z m-16 -81 c21 -17 53 -84 53 -110 0 -28 -68
-119 -130 -175 -25 -22 -70 -53 -100 -68 -30 -15 -66 -36 -79 -46 -13 -11 -38
-19 -56 -19 -29 0 -33 3 -30 23 1 12 10 39 19 59 13 30 13 36 2 32 -7 -3 -16
3 -20 12 -4 12 9 43 40 93 26 42 63 104 82 138 34 60 37 63 81 68 25 4 51 8
56 10 16 7 67 -4 82 -17z m-1287 -34 c-25 -14 -53 -33 -63 -42 -17 -15 -17
-15 -11 2 9 23 73 66 99 66 14 0 6 -8 -25 -26z m165 -14 c34 -13 196 -144 262
-211 54 -56 83 -110 83 -154 0 -33 -24 -81 -46 -89 -20 -8 -147 18 -214 43
-40 15 -52 16 -67 6 -27 -18 -71 -27 -78 -15 -4 6 6 10 23 10 33 0 57 23 67
63 10 37 26 35 19 -3 -4 -16 -3 -30 2 -31 11 -1 21 -3 114 -28 41 -12 87 -21
102 -21 51 0 71 45 47 107 -8 21 -12 24 -19 13 -5 -8 -6 -18 -4 -22 3 -4 -2
-5 -10 -2 -9 3 -16 2 -16 -4 0 -8 -90 -10 -187 -3 -17 1 -16 27 2 76 8 22 14
56 14 75 l-1 35 -14 -46 c-19 -63 -46 -86 -80 -71 -38 18 -62 14 -89 -13 -30
-29 -33 -74 -8 -112 17 -25 17 -27 -1 -37 -11 -6 -33 -23 -50 -38 -44 -39 -10
-36 37 3 20 17 37 26 37 20 0 -5 -20 -27 -45 -48 -25 -20 -45 -46 -45 -56 0
-30 -54 -77 -89 -77 -17 0 -31 5 -31 10 0 6 11 10 25 10 37 0 75 42 75 81 0
43 -25 69 -67 69 -49 0 -83 -37 -83 -89 0 -52 -30 -73 -111 -79 -32 -2 -56 -8
-53 -13 9 -15 102 -10 141 6 34 14 38 14 54 -2 22 -24 32 -125 15 -149 -9 -12
-28 -17 -59 -18 -26 -1 -47 -4 -47 -8 0 -19 80 -89 108 -94 35 -7 44 -24 13
-24 -61 0 -133 66 -215 199 -142 229 -151 302 -50 390 33 30 41 32 80 26 35
-5 44 -3 44 8 0 8 42 52 94 98 79 71 95 89 95 115 2 74 134 129 226 94z m510
-60 c14 -6 32 -24 39 -42 13 -29 12 -34 -5 -46 -32 -22 -79 -33 -79 -18 0 7
-9 21 -21 32 -17 16 -22 16 -29 4 -8 -12 -10 -10 -10 8 0 26 41 72 64 72 8 0
26 -4 41 -10z m7 -127 c38 22 47 16 19 -12 -32 -32 -100 -24 -114 13 -5 13 -1
13 29 -2 34 -15 37 -15 66 1z m79 -93 c27 -15 24 -53 -8 -101 -19 -29 -32 -39
-47 -37 -32 5 -34 70 -4 114 25 37 30 39 59 24z m901 -16 c58 -23 103 -67 136
-134 50 -101 26 -241 -52 -307 -38 -32 -123 -73 -153 -73 -39 0 -25 16 30 33
96 32 155 87 171 162 l7 30 -19 -28 c-23 -34 -51 -60 -81 -76 -22 -12 -135
-52 -136 -48 -1 1 -11 19 -23 40 l-21 37 50 0 c58 0 96 17 133 60 36 44 49 99
35 154 -13 53 -38 82 -93 107 -115 52 -237 -11 -253 -131 l-6 -39 -27 29 c-16
17 -33 30 -40 30 -18 0 41 99 73 122 66 47 191 62 269 32z m-1514 -17 c4 -21
-15 -47 -34 -47 -18 0 -28 38 -13 56 16 19 43 14 47 -9z m-519 11 c-2 -2 -19
-16 -38 -33 -28 -25 -32 -26 -22 -8 11 22 37 42 55 43 5 0 7 -1 5 -2z m1983
-77 c6 -10 17 -17 24 -14 6 2 15 0 19 -6 4 -7 0 -8 -11 -4 -13 5 -15 3 -9 -8
7 -12 6 -12 -7 -1 -11 9 -18 10 -23 2 -3 -5 -23 -10 -44 -10 -22 0 -44 -6 -51
-15 -15 -18 -30 -11 -30 15 0 48 106 82 132 41z m625 -27 c29 -22 53 -77 40
-91 -3 -3 -20 11 -37 31 -17 19 -48 45 -67 57 -32 20 -34 23 -17 29 24 9 40 3
81 -26z m-67 -44 c14 -10 33 -27 44 -38 18 -21 18 -21 -10 -46 -27 -23 -29
-23 -36 -5 -4 10 -19 21 -34 25 -23 6 -34 0 -74 -42 -46 -48 -47 -49 -64 -29
-9 11 -14 14 -11 8 3 -7 2 -13 -2 -13 -14 0 -193 -238 -193 -257 0 -7 -2 -13
-4 -13 -2 0 -12 -3 -21 -6 -20 -8 35 82 130 216 33 47 69 98 79 114 10 16 37
49 59 73 38 41 44 44 76 38 19 -4 47 -15 61 -25z m-851 -56 c19 -8 32 -16 30
-17 -2 -2 -52 -2 -111 1 -80 3 -108 8 -108 17 0 7 6 15 13 18 22 8 141 -5 176
-19z m-1385 7 c6 -9 -43 -35 -52 -27 -2 3 -2 12 1 21 7 16 42 21 51 6z m441
-2 c4 -6 5 -12 4 -13 -2 -2 -53 -6 -113 -8 -107 -5 -109 -5 -87 14 18 14 40
18 107 18 48 0 86 -4 89 -11z m1158 -64 c38 -10 118 13 139 39 17 21 18 21 18
1 0 -12 -12 -27 -31 -37 -17 -10 -28 -21 -25 -26 2 -4 -22 -9 -55 -10 -56 -3
-62 -1 -94 31 -41 41 -48 73 -7 35 15 -15 40 -30 55 -33z m-1166 9 c26 -9 61
-25 76 -36 27 -19 28 -20 25 -2 -3 18 10 19 307 20 237 1 317 5 340 15 47 21
162 17 215 -7 59 -27 127 -95 152 -150 27 -63 35 -171 15 -211 -22 -41 -117
-127 -169 -151 -59 -28 -114 -34 -132 -16 -21 20 -23 18 -30 -26 -11 -70 -81
-133 -163 -146 -45 -7 -106 18 -157 65 l-29 26 27 -37 c30 -40 97 -78 138 -78
13 0 46 6 72 14 42 13 46 13 35 0 -35 -43 -124 -57 -178 -30 -38 20 -89 80
-97 114 -14 62 -13 62 -58 62 -45 0 -74 -19 -60 -41 5 -8 3 -9 -6 -4 -10 6
-12 4 -7 -9 16 -40 -57 -120 -119 -132 -42 -8 -101 8 -138 37 -34 27 -33 43 2
25 82 -42 168 -38 213 10 12 13 18 24 12 24 -6 0 -16 -6 -22 -14 -6 -7 -32
-19 -56 -26 -90 -25 -205 33 -227 115 l-12 45 -46 0 c-83 0 -148 26 -204 83
-67 68 -86 109 -86 189 0 75 22 128 76 188 78 86 190 118 291 84z m1834 -96
c-28 -40 -83 -107 -122 -148 -67 -71 -56 -48 22 43 30 35 89 112 134 173 5 7
11 11 13 9 2 -2 -19 -37 -47 -77z m-2604 -162 c23 -20 25 -26 14 -39 -18 -23
-69 -31 -88 -15 -15 12 -15 11 -5 -9 7 -12 20 -27 30 -32 10 -6 12 -11 4 -11
-16 0 -62 45 -62 60 0 14 55 70 69 70 5 0 22 -11 38 -24z m2406 -118 c99 -43
166 -161 154 -273 -7 -67 -35 -122 -86 -168 -76 -69 -108 -77 -229 -56 -78 14
-124 39 -152 83 -30 50 -25 50 28 0 61 -60 96 -74 179 -74 51 0 77 5 103 21
84 51 128 116 137 205 5 44 3 54 -9 54 -9 0 -21 -13 -27 -28 -22 -52 -64 -89
-96 -82 -5 1 -15 -6 -21 -15 -8 -10 -33 -18 -68 -22 -98 -10 -184 40 -201 117
-4 16 -11 30 -15 30 -5 0 -12 16 -16 37 l-7 36 -18 -34 -18 -34 -1 28 c0 43
44 120 87 150 49 34 137 58 188 50 22 -3 62 -14 88 -25z m-2515 6 c42 -29 46
-52 17 -90 -30 -39 -52 -42 -89 -13 -47 37 -51 56 -17 89 33 34 56 37 89 14z
m212 9 c-1 -13 -80 -65 -80 -53 0 16 47 60 65 60 8 0 15 -3 15 -7z m308 -49
c18 -66 105 -155 173 -178 28 -9 60 -16 70 -16 29 0 23 -32 -16 -77 -42 -49
-129 -88 -197 -88 -27 0 -48 -2 -47 -5 0 -3 4 -14 8 -25 7 -16 2 -23 -27 -37
-20 -10 -41 -18 -48 -18 -36 0 -23 179 26 369 17 63 30 116 30 117 0 2 4 4 8
4 4 0 13 -21 20 -46z m1531 -11 c49 -222 63 -375 41 -455 -18 -65 -28 -51 -23
31 4 58 2 80 -7 86 -9 5 -11 4 -6 -3 4 -7 1 -12 -8 -12 -8 0 -18 5 -21 10 -4
7 -13 6 -26 -1 -27 -14 -122 6 -171 37 -40 25 -75 82 -66 106 3 7 33 22 66 32
49 14 71 28 110 70 31 32 57 73 68 104 10 28 21 49 25 46 4 -2 12 -25 18 -51z
m-1729 -40 c0 -5 -17 -18 -38 -31 l-37 -23 33 30 c33 32 42 37 42 24z m-430
-38 c30 -31 32 -37 22 -59 -18 -39 -56 -60 -84 -45 -28 14 -68 50 -68 60 0 13
70 79 83 79 7 0 28 -16 47 -35z m239 9 c17 -14 31 -34 31 -44 0 -18 -56 -70
-75 -70 -19 0 -75 53 -75 71 0 26 43 69 69 69 11 0 33 -12 50 -26z m141 -124
c15 -28 5 -54 -32 -85 -27 -23 -33 -24 -52 -12 -11 8 -29 28 -39 45 -22 37
-12 63 31 86 23 12 31 12 54 0 15 -8 32 -23 38 -34z m-261 14 c18 -15 31 -35
31 -49 0 -26 -45 -85 -64 -85 -7 0 -29 18 -50 39 -43 44 -43 66 1 101 33 26
45 25 82 -6z m-169 -84 c50 -46 90 -87 90 -92 0 -22 -32 0 -109 72 -46 44 -88
80 -92 80 -5 0 -9 9 -9 20 0 29 13 20 120 -80z m291 -29 c36 -37 37 -60 1 -94
-36 -35 -51 -34 -89 6 -36 37 -33 60 13 96 35 27 40 27 75 -8z m188 -15 c-12
-14 -26 -23 -31 -20 -5 3 -7 2 -6 -3 2 -5 -17 -30 -41 -56 -24 -25 -50 -56
-58 -67 -16 -22 -43 -27 -43 -7 0 23 185 193 198 182 2 -2 -7 -15 -19 -29z
m966 -16 c18 -20 18 -21 -3 -42 -17 -18 -23 -19 -36 -8 -19 15 -21 41 -4 58
16 16 22 15 43 -8z m1040 10 c13 -6 15 -9 5 -9 -8 0 -22 4 -30 9 -18 12 -2 12
25 0z m-1469 -49 c-14 -26 -36 -42 -36 -26 0 18 35 74 43 66 5 -5 2 -22 -7
-40z m834 -1 c15 -36 4 -53 -16 -26 -15 21 -20 71 -5 62 4 -3 14 -19 21 -36z
m703 33 c-7 -2 -21 -2 -30 0 -10 3 -4 5 12 5 17 0 24 -2 18 -5z m-2491 -69
c75 -69 88 -84 69 -84 -10 0 -151 137 -151 147 0 10 17 -3 82 -63z m158 -65
c0 -5 -7 -9 -15 -9 -18 0 -96 80 -89 92 6 10 104 -69 104 -83z m1547 -15 c108
-39 155 -187 95 -298 -9 -17 -15 -34 -14 -38 3 -13 -59 -57 -96 -68 -20 -5
-61 -10 -89 -10 l-53 0 0 -74 c0 -105 0 -106 -76 -106 l-64 0 0 308 0 307 127
-3 c84 -2 143 -8 170 -18z m-809 -61 l-3 -78 -35 -2 c-19 -2 -68 -6 -107 -9
l-73 -6 0 -40 0 -40 94 7 93 7 6 -63 c7 -83 4 -89 -53 -89 -26 0 -68 -3 -94
-6 l-46 -7 0 -40 0 -40 110 6 110 6 0 -78 0 -77 -172 -11 c-95 -6 -175 -9
-178 -6 -3 3 -6 142 -8 309 l-3 304 48 1 c26 0 100 6 163 13 63 8 123 14 133
15 16 1 18 -7 15 -76z m363 62 c19 -8 41 -20 50 -27 26 -21 49 -74 49 -113 0
-42 -24 -105 -47 -122 -14 -11 -11 -16 21 -46 32 -31 36 -40 36 -84 0 -72 -26
-139 -66 -169 -39 -30 -118 -43 -260 -44 -79 0 -92 2 -96 18 -3 9 -3 149 0
310 l5 292 137 0 c100 0 147 -4 171 -15z m698 -1 l31 -6 0 -223 c0 -222 0
-223 23 -229 12 -3 38 -6 58 -6 20 0 51 -3 68 -6 30 -6 31 -8 31 -58 l0 -51
19 40 c10 22 48 130 86 239 37 110 74 215 82 233 l14 34 62 -7 c34 -4 69 -10
77 -15 25 -12 157 -572 144 -611 -6 -21 -16 -22 -100 -6 l-63 11 -6 52 c-4 29
-10 57 -13 62 -8 12 -110 36 -122 28 -5 -3 -12 -20 -15 -38 -4 -17 -15 -45
-24 -60 -13 -24 -21 -27 -46 -23 -16 3 -100 10 -185 16 -85 6 -171 13 -190 16
l-35 5 1 127 c1 70 2 207 3 305 l1 177 34 0 c18 0 48 -3 65 -6z m-1433 -27 c2
-7 -9 -78 -26 -157 -17 -80 -42 -200 -55 -268 -35 -177 -44 -202 -70 -202 -12
0 -42 -3 -67 -6 l-45 -6 -48 148 c-46 141 -49 147 -57 114 -5 -19 -11 -44 -13
-55 -3 -11 -10 -59 -15 -107 -15 -126 -9 -120 -115 -133 -62 -8 -53 -23 -135
223 -34 101 -75 215 -91 254 -16 39 -29 74 -29 78 0 11 133 41 141 33 9 -10
99 -290 99 -310 0 -35 18 2 25 49 3 29 19 107 33 173 l27 119 60 12 c45 9 62
9 67 1 4 -7 17 -48 29 -92 11 -44 31 -114 43 -157 l22 -76 12 66 c17 88 63
286 69 292 3 3 30 8 61 11 31 3 61 7 65 8 4 0 10 -5 13 -12z m2150 -49 c32 -6
61 -12 63 -14 7 -6 61 -179 61 -196 0 -36 17 -16 60 73 25 50 48 93 52 95 4 3
26 0 50 -5 24 -5 55 -12 70 -15 l26 -6 -55 -107 c-31 -60 -74 -137 -95 -172
-37 -60 -40 -69 -45 -167 -3 -58 -11 -111 -17 -119 -9 -12 -21 -13 -73 -2
l-63 12 0 116 c0 112 -2 123 -41 231 -87 241 -97 288 -65 288 7 0 39 -5 72
-12z m-1116 -638 c85 -43 121 -84 153 -171 31 -86 33 -111 11 -187 -12 -39
-30 -70 -62 -105 -55 -58 -96 -81 -139 -78 -18 1 -33 -3 -33 -9 0 -5 6 -10 13
-10 29 -1 -38 -27 -73 -28 -53 -2 -165 55 -228 116 -40 39 -52 58 -61 101 -20
93 -9 177 33 258 20 41 90 101 123 108 16 4 42 12 58 20 54 25 138 19 205 -15z
m-432 -36 c4 -29 -23 -51 -43 -34 -16 13 -20 42 -8 54 14 14 48 1 51 -20z
m661 12 c13 -16 6 -42 -15 -50 -22 -8 -43 42 -23 55 19 12 25 11 38 -5z m339
-16 c48 -25 107 -104 118 -156 8 -43 -16 -87 -91 -160 -68 -66 -107 -80 -181
-64 -86 20 -177 128 -176 209 1 76 66 165 142 195 33 13 145 -1 188 -24z
m-1154 6 c36 -15 61 -41 29 -30 -16 6 -16 5 -3 -7 8 -8 21 -21 29 -29 8 -8 11
-9 7 -2 -4 6 -4 12 -1 12 3 0 13 -16 21 -36 15 -36 15 -37 -13 -67 -15 -17
-34 -37 -40 -45 -8 -8 -13 -9 -13 -2 0 6 -4 9 -9 6 -5 -4 -12 0 -14 6 -3 7 -6
-1 -6 -19 -1 -21 -8 -36 -19 -42 -18 -10 -108 -10 -115 0 -2 2 -11 17 -21 32
-10 16 -20 26 -23 23 -3 -3 -14 4 -24 16 -21 23 -26 83 -8 93 6 4 8 13 5 20
-9 24 51 69 102 76 74 10 81 10 116 -5z m-348 -27 c21 -20 22 -24 9 -49 -22
-42 -41 -53 -81 -46 -26 5 -34 11 -30 22 3 9 1 12 -4 9 -17 -10 -11 47 7 67
22 24 71 23 99 -3z m1722 -21 c2 -19 -2 -28 -17 -33 -28 -8 -41 1 -41 30 0 42
53 46 58 3z m-2064 -4 c9 -8 16 -22 16 -30 0 -8 6 -14 13 -14 7 -1 5 -6 -5
-14 -10 -7 -18 -18 -18 -25 0 -6 -5 -11 -12 -11 -6 0 -8 -3 -5 -7 4 -3 -1 -11
-10 -18 -14 -10 -22 -7 -50 18 -18 17 -33 34 -33 39 0 14 62 78 76 78 7 0 20
-7 28 -16z m2309 -10 c52 -26 85 -64 103 -116 32 -99 -3 -184 -96 -231 -62
-32 -104 -30 -175 6 -49 25 -61 39 -80 101 -18 58 -8 116 31 177 44 70 145 99
217 63z m-2442 -131 c5 -13 15 -23 24 -23 21 0 19 -16 -6 -51 -11 -16 -25 -45
-30 -64 -6 -19 -15 -35 -21 -35 -16 0 -108 94 -108 110 0 8 23 35 52 62 55 51
70 51 89 1z m402 -27 c123 -44 180 -142 163 -279 -13 -102 -132 -207 -235
-207 -91 0 -199 79 -229 169 -25 72 -9 176 38 241 11 16 48 42 82 59 67 34
119 39 181 17z m271 -120 c19 -9 56 -17 83 -17 41 -1 44 -2 18 -8 -64 -15
-156 24 -189 80 -25 42 -19 42 19 0 20 -21 51 -46 69 -55z m229 59 c-3 -9 -8
-14 -10 -11 -3 3 -2 9 2 15 9 16 15 13 8 -4z m1422 -306 c61 -57 114 -109 119
-117 9 -15 -11 -35 -92 -93 -39 -28 -46 -30 -72 -19 -16 7 -51 38 -77 69 -26
31 -50 58 -53 61 -29 27 -142 176 -158 208 l-19 40 31 24 c83 63 73 63 146 -7
36 -34 115 -109 175 -166z m-1641 113 c-16 -25 -38 -21 -42 7 -5 30 18 45 38
25 11 -11 12 -19 4 -32z m251 14 c22 -14 86 -47 143 -75 56 -27 102 -53 102
-58 0 -4 -10 -14 -21 -22 -12 -7 -55 -38 -96 -69 -146 -112 -177 -132 -202
-132 -13 0 -68 24 -120 54 -53 30 -117 65 -143 77 -60 29 -55 40 57 114 47 32
107 75 132 96 56 46 90 50 148 15z m872 -12 c190 -90 240 -321 103 -477 -98
-111 -297 -128 -418 -35 -82 63 -119 186 -93 308 37 175 247 280 408 204z
m-1767 -67 c0 -7 8 -29 19 -50 10 -20 15 -34 10 -31 -5 3 -9 -1 -9 -9 0 -8
-19 -36 -42 -62 -24 -28 -43 -59 -43 -73 -1 -22 0 -22 12 -6 7 10 13 22 13 27
0 4 4 6 8 3 4 -2 28 15 52 40 l44 44 28 -27 28 -27 -23 -24 c-27 -30 -149
-122 -161 -122 -4 0 -5 7 -2 15 3 8 9 21 12 29 4 11 0 13 -15 9 -17 -4 -19 -1
-15 21 4 26 -9 36 -21 16 -10 -16 -28 -12 -21 5 4 11 -2 15 -22 15 -16 0 -37
7 -48 15 -18 14 -14 19 81 110 55 52 103 95 108 95 4 0 7 -6 7 -13z m1150
-124 c0 -27 5 -85 11 -129 7 -45 9 -93 6 -106 -6 -23 -66 -78 -207 -188 l-65
-51 -22 118 c-35 187 -43 164 108 278 73 54 137 104 143 111 20 23 26 15 26
-33z m960 -76 c46 -49 96 -95 111 -104 18 -11 25 -22 21 -35 -2 -10 -8 -18
-11 -16 -16 7 -241 248 -241 258 0 17 27 -6 120 -103z m-832 57 c4 -31 -22
-49 -42 -29 -12 13 -14 21 -5 36 13 25 43 21 47 -7z m-616 -81 c94 -49 153
-85 158 -98 13 -36 44 -255 36 -262 -4 -4 -68 24 -142 62 -95 49 -140 78 -149
96 -8 14 -23 71 -34 127 -11 55 -23 112 -27 126 -3 15 -3 26 1 26 3 0 74 -35
157 -77z m-827 -10 c-19 -47 -18 -53 9 -53 15 0 31 8 38 20 16 25 27 26 24 3
-2 -11 -21 -25 -47 -35 -81 -31 -94 -21 -62 47 17 35 52 52 38 18z m428 -26
c9 -3 17 -11 17 -17 0 -13 -88 -111 -125 -138 -29 -22 -30 -22 -46 -3 -15 18
-16 18 -39 1 -14 -10 -28 -16 -33 -13 -5 3 35 50 89 104 76 77 101 96 109 86
5 -7 18 -16 28 -20z m2127 -41 c-9 -8 -14 -8 -17 1 -2 7 -12 10 -21 7 -9 -3
-3 6 13 20 29 26 30 26 33 5 2 -12 -2 -26 -8 -33z m-1102 12 c-2 -15 -10 -23
-23 -23 -13 0 -21 8 -23 23 -3 18 1 22 23 22 22 0 26 -4 23 -22z m1102 -66 c0
-2 -16 -10 -35 -18 -27 -11 -41 -12 -56 -4 -11 6 -18 14 -15 18 4 7 106 10
106 4z m85 -50 c-6 -7 -35 18 -35 31 0 5 9 2 20 -8 11 -10 18 -20 15 -23z
m-2270 -63 c-58 -55 -75 -67 -75 -52 0 4 15 18 33 31 18 12 46 35 62 52 16 16
30 28 32 26 2 -2 -21 -28 -52 -57z m1112 31 c58 -35 68 -150 18 -204 -12 -13
-41 -30 -64 -37 -36 -11 -47 -10 -76 4 -44 21 -75 71 -75 120 0 43 31 111 57
126 30 17 105 13 140 -9z m-1289 -46 c27 -19 28 -36 2 -59 -24 -22 -39 -13
-16 10 21 22 20 28 -3 16 -10 -6 -22 -7 -26 -3 -5 4 -5 2 -2 -4 4 -6 -3 -20
-15 -30 l-21 -19 6 38 c10 65 33 81 75 51z m72 -83 c0 -15 -49 -49 -80 -56
-16 -4 -37 -2 -47 4 -15 10 -14 10 7 6 19 -5 36 2 65 24 43 32 55 37 55 22z"/>
<path d="M2809 4149 c-34 -36 -37 -67 -9 -101 23 -30 62 -40 102 -26 79 28 56
158 -29 158 -26 0 -42 -8 -64 -31z m103 -35 c11 -23 5 -54 -10 -54 -4 0 -6 16
-4 35 4 32 2 35 -21 35 -15 0 -32 -9 -41 -22 l-16 -22 0 22 c0 44 73 49 92 6z"/>
<path d="M2740 4000 c0 -22 40 -48 85 -54 62 -10 70 0 12 15 -25 6 -53 20 -63
30 -19 21 -34 25 -34 9z"/>
<path d="M1784 4105 c-11 -29 5 -65 29 -65 25 0 47 17 47 36 0 35 -65 59 -76
29z"/>
<path d="M1684 4076 c-8 -34 2 -46 37 -46 37 0 48 24 24 50 -25 28 -53 25 -61
-4z m46 -17 c0 -5 -7 -9 -15 -9 -15 0 -20 12 -9 23 8 8 24 -1 24 -14z"/>
<path d="M1804 4005 c-8 -19 22 -65 41 -65 23 0 46 40 34 62 -12 22 -67 25
-75 3z m46 -26 c0 -5 -4 -9 -10 -9 -5 0 -10 7 -10 16 0 8 5 12 10 9 6 -3 10
-10 10 -16z"/>
<path d="M1717 3992 c-10 -10 -17 -26 -17 -36 0 -20 42 -41 64 -33 22 9 20 50
-2 70 -23 21 -25 21 -45 -1z"/>
<path d="M1579 3847 c-19 -13 -34 -31 -34 -42 0 -31 17 -24 59 23 43 47 30 56
-25 19z"/>
<path d="M1315 3756 c-15 -11 -20 -28 -22 -74 -3 -71 5 -80 74 -89 46 -5 51
-3 76 27 15 17 27 43 27 56 0 32 -25 80 -45 88 -29 11 -91 6 -110 -8z m105
-26 c0 -6 -5 -19 -12 -30 -10 -15 -9 -22 6 -38 13 -15 14 -21 4 -25 -7 -2 -21
0 -30 5 -11 5 -26 5 -38 -2 -15 -8 -20 -8 -20 3 0 7 5 18 12 25 9 9 7 16 -6
31 -21 23 -4 40 20 20 12 -10 18 -9 32 4 18 19 32 22 32 7z"/>
<path d="M1781 3836 c-8 -9 -8 -16 -2 -20 6 -4 15 3 21 14 12 23 -2 27 -19 6z"/>
<path d="M2840 3513 c-25 -31 -20 -65 12 -100 27 -28 57 -29 91 -3 34 27 41
53 23 88 -26 51 -91 59 -126 15z m89 -7 c9 -11 8 -18 -5 -30 -20 -20 -43 -17
-58 7 -8 14 -8 20 4 27 22 14 46 12 59 -4z"/>
<path d="M1900 3507 c-19 -9 -26 -22 -28 -50 -3 -34 -6 -37 -33 -37 -55 0 -69
-15 -69 -74 0 -60 8 -70 63 -80 32 -6 37 -10 37 -35 0 -45 22 -66 70 -66 47 0
80 29 80 70 0 25 17 35 56 35 19 0 28 8 39 33 25 61 -6 117 -66 117 -23 0 -27
5 -33 40 -5 31 -12 43 -32 50 -33 13 -54 12 -84 -3z m78 -68 c3 -28 -22 -62
-42 -56 -6 2 -12 23 -14 46 -3 41 -2 42 25 39 22 -2 29 -9 31 -29z m-104 -78
c7 -11 -17 -21 -50 -21 -25 0 -33 15 -11 23 20 9 55 8 61 -2z m200 0 c14 -22
-7 -41 -44 -41 -43 0 -58 13 -40 35 14 16 75 20 84 6z m-109 -58 c-2 -10 -4
-23 -4 -30 -1 -7 -10 -17 -21 -23 -18 -10 -20 -8 -20 18 0 26 9 35 47 51 1 1
0 -7 -2 -16z"/>
<path d="M2732 3414 c-33 -23 -45 -60 -31 -101 21 -65 91 -69 130 -7 18 30 20
38 9 65 -14 32 -45 59 -70 59 -9 0 -26 -7 -38 -16z m78 -34 c13 -24 6 -70 -12
-82 -19 -11 -31 -10 -56 8 -24 17 -30 62 -10 82 19 19 66 15 78 -8z"/>
<path d="M2999 3415 c-39 -21 -53 -69 -32 -105 32 -55 92 -59 127 -8 23 32 20
62 -10 97 -28 34 -46 37 -85 16z"/>
<path d="M2303 3353 c-30 -6 -46 -28 -38 -52 13 -41 94 -40 116 1 10 18 8 24
-11 40 -22 18 -27 19 -67 11z"/>
<path d="M2480 3342 c-49 -40 15 -90 77 -60 38 18 42 51 8 66 -36 17 -59 15
-85 -6z"/>
<path d="M2855 3275 c-47 -46 -19 -125 45 -125 67 0 95 76 47 128 -27 29 -62
28 -92 -3z m81 -20 c20 -31 10 -63 -22 -71 -31 -8 -54 11 -54 45 0 52 48 69
76 26z"/>
<path d="M2149 3211 c-71 -23 -99 -61 -99 -135 0 -33 6 -52 26 -76 99 -117
268 -51 251 98 -9 82 -97 139 -178 113z m98 -63 c37 -34 29 -51 -12 -26 -20
11 -38 18 -40 16 -3 -3 6 -11 20 -18 42 -23 29 -75 -20 -80 -44 -5 -54 1 -67
36 -12 34 -13 35 -20 13 -5 -17 -6 -14 -3 10 7 50 31 71 78 71 28 0 48 -7 64
-22z m13 -126 c0 -12 -46 -32 -74 -32 -12 0 -31 6 -42 14 -17 13 -16 14 21 10
22 -3 51 -1 65 5 32 13 30 12 30 3z"/>
<path d="M2595 3201 c-51 -31 -68 -58 -73 -114 -4 -61 21 -108 75 -140 82 -47
203 34 203 136 0 67 -74 137 -145 137 -16 0 -43 -8 -60 -19z m122 -53 c35 -33
31 -53 -7 -33 -42 22 -92 19 -119 -6 l-23 -22 7 24 c13 42 35 59 78 59 28 0
48 -7 64 -22z m-7 -74 c0 -49 -91 -55 -113 -7 -13 30 3 43 45 38 15 -2 28 1
28 6 0 6 8 5 20 -1 12 -6 20 -21 20 -36z m-31 -80 c10 -9 -55 -3 -69 6 -10 6
-2 7 25 3 22 -3 42 -7 44 -9z"/>
<path d="M3459 3119 l-24 -20 30 17 c39 24 40 24 28 24 -6 0 -21 -9 -34 -21z"/>
<path d="M3681 3096 c56 -66 61 -115 16 -164 l-22 -25 23 12 c26 14 42 48 42
91 0 19 -13 41 -42 72 -24 24 -31 30 -17 14z"/>
<path d="M3530 2961 c-7 -15 -7 -21 0 -21 12 0 25 28 17 36 -3 3 -10 -4 -17
-15z"/>
<path d="M1610 2827 c0 -20 4 -38 9 -41 10 -7 8 61 -3 71 -3 3 -6 -10 -6 -30z"/>
<path d="M2610 2517 l0 -77 50 0 c57 0 90 24 90 64 0 32 -44 66 -84 66 -18 0
-37 5 -44 12 -9 9 -12 -5 -12 -65z"/>
<path d="M2151 2541 l-1 -64 52 7 c63 9 78 20 78 56 0 32 -14 40 -75 40 -25 0
-45 5 -48 13 -3 6 -6 -17 -6 -52z"/>
<path d="M2150 2318 l0 -58 48 0 c57 0 92 21 92 56 0 31 -38 47 -87 38 -25 -5
-38 -3 -44 7 -6 9 -9 -7 -9 -43z"/>
<path d="M3467 2391 c-24 -60 -22 -71 13 -71 30 0 31 1 24 38 -14 74 -19 79
-37 33z"/>
<path d="M2480 1991 l-25 -6 37 -37 c21 -21 38 -34 38 -28 0 5 18 14 40 20 22
6 40 15 40 21 0 19 -88 40 -130 30z"/>
<path d="M2345 1960 c-3 -5 3 -10 14 -10 12 0 21 5 21 10 0 6 -6 10 -14 10 -8
0 -18 -4 -21 -10z"/>
<path d="M2395 1921 c-25 -49 -20 -61 24 -61 35 0 40 3 50 32 13 35 8 43 -31
52 -23 5 -30 2 -43 -23z"/>
<path d="M2343 1929 c-24 -9 -28 -37 -14 -88 5 -21 9 -16 24 33 10 32 17 59
15 61 -2 1 -13 -1 -25 -6z"/>
<path d="M2272 1890 c-29 -46 -36 -72 -28 -115 9 -44 16 -48 45 -24 22 18 23
22 14 97 l-9 77 -22 -35z"/>
<path d="M2587 1909 c-16 -10 -16 -12 5 -29 26 -21 43 -12 33 19 -7 24 -12 25
-38 10z"/>
<path d="M2650 1868 c5 -38 14 -57 33 -74 27 -23 37 -41 15 -28 -7 5 -8 3 -3
-6 6 -10 12 -8 26 9 16 20 17 26 4 69 -14 46 -45 82 -69 82 -9 0 -11 -14 -6
-52z"/>
<path d="M2540 1859 c6 -10 16 -19 23 -19 7 0 22 -3 35 -6 13 -4 22 -2 22 5 0
6 -8 11 -17 11 -10 0 -30 7 -46 14 -26 14 -27 14 -17 -5z"/>
<path d="M2397 1795 l-38 -33 12 -46 c6 -25 15 -46 19 -46 7 0 54 150 48 155
-2 2 -20 -12 -41 -30z"/>
<path d="M2476 1821 c-4 -5 -20 -47 -36 -92 l-29 -83 37 -32 37 -32 47 24 c26
13 49 27 51 31 3 5 -9 49 -27 98 -25 71 -36 91 -53 93 -12 2 -24 -1 -27 -7z"/>
<path d="M2370 1805 c0 -8 2 -15 4 -15 2 0 6 7 10 15 3 8 1 15 -4 15 -6 0 -10
-7 -10 -15z"/>
<path d="M2560 1803 c0 -5 11 -37 24 -72 23 -63 23 -63 29 -31 13 63 9 86 -18
98 -30 14 -35 15 -35 5z"/>
<path d="M2750 1759 c-9 -20 -9 -33 3 -60 l14 -34 6 43 c4 24 3 51 -2 60 -8
14 -11 13 -21 -9z"/>
<path d="M2211 1705 l0 -70 16 32 c14 28 14 35 0 70 l-16 38 0 -70z"/>
<path d="M2643 1721 l-10 -49 29 21 c33 24 35 38 9 61 -17 16 -19 15 -28 -33z"/>
<path d="M2306 1727 c-10 -8 -15 -19 -11 -29 7 -17 54 -53 60 -46 5 5 -18 88
-25 88 -3 0 -14 -6 -24 -13z"/>
<path d="M2671 1660 c-10 -16 -20 -28 -23 -25 -11 11 -28 -24 -31 -61 -2 -37
0 -39 30 -42 44 -4 63 26 63 100 0 65 -11 73 -39 28z"/>
<path d="M2727 1650 c4 -25 6 -58 5 -75 -1 -23 1 -26 8 -15 14 22 11 82 -6
110 -14 24 -14 23 -7 -20z"/>
<path d="M2245 1639 c-15 -28 -15 -33 3 -67 19 -37 51 -60 39 -28 -4 10 -7 42
-7 72 0 61 -12 69 -35 23z"/>
<path d="M2294 1611 c10 -73 14 -81 47 -81 27 0 29 3 29 39 0 34 -5 41 -41 66
l-42 27 7 -51z"/>
<path d="M2561 1591 l-24 -19 22 -7 c27 -8 34 -3 29 24 -3 20 -4 20 -27 2z"/>
<path d="M2390 1567 c0 -22 11 -27 33 -16 16 9 17 13 6 20 -21 13 -39 11 -39
-4z"/>
<path d="M2530 1541 c31 -25 42 -26 38 -3 -2 11 -14 18 -33 20 l-30 3 25 -20z"/>
<path d="M2433 1522 l-32 -17 20 -32 c26 -40 53 -49 85 -28 37 24 39 41 7 69
-33 30 -38 30 -80 8z"/>
<path d="M2606 1503 c-11 -29 -6 -35 21 -28 29 7 53 23 53 34 0 14 -69 9 -74
-6z"/>
<path d="M2336 1501 l-29 -6 42 -29 c23 -16 44 -27 46 -24 7 6 -15 68 -23 67
-4 -1 -20 -4 -36 -8z"/>
<path d="M2525 1420 c-3 -6 1 -7 9 -4 18 7 21 14 7 14 -6 0 -13 -4 -16 -10z"/>
<path d="M2993 1934 c-34 -17 -57 -52 -26 -39 29 11 66 23 97 30 23 5 27 8 15
16 -21 13 -50 11 -86 -7z"/>
<path d="M3060 1899 c-104 -27 -112 -38 -69 -86 48 -54 148 -133 169 -133 15
0 18 15 24 107 3 59 3 110 -1 114 -18 16 -53 16 -123 -2z"/>
<path d="M3224 1859 c-10 -17 -18 -179 -8 -179 18 0 54 67 54 99 0 28 -24 91
-35 91 -2 0 -7 -5 -11 -11z"/>
<path d="M2905 1831 c-26 -51 -17 -91 31 -139 16 -16 24 -19 27 -10 3 7 6 3 6
-10 1 -12 8 -25 16 -28 8 -4 15 -12 15 -19 0 -34 109 -29 155 7 l26 20 -48 23
c-26 13 -70 43 -98 69 -27 25 -55 46 -61 46 -6 0 -17 14 -24 30 -18 43 -27 45
-45 11z m72 -123 c-3 -8 -6 -5 -6 6 -1 11 2 17 5 13 3 -3 4 -12 1 -19z"/>
<path d="M1834 1908 l-19 -23 25 20 c14 11 27 21 29 22 2 2 0 3 -6 3 -5 0 -18
-10 -29 -22z"/>
<path d="M1913 1755 c20 -19 31 -24 44 -17 14 8 12 12 -15 26 -46 24 -60 19
-29 -9z"/>
<path d="M3415 1729 c-31 -97 106 -213 210 -179 70 23 125 91 125 152 -1 22
-2 21 -28 -10 -81 -96 -200 -92 -269 11 -28 42 -32 45 -38 26z"/>
<path d="M3529 1658 c7 -10 23 -17 35 -17 20 1 20 2 1 6 -11 3 -27 10 -35 17
-13 10 -13 9 -1 -6z"/>
<path d="M1095 1710 c-8 -13 60 -80 81 -80 8 0 14 4 14 9 0 13 -26 32 -33 24
-4 -3 -7 0 -7 8 -1 20 -47 52 -55 39z"/>
<path d="M1326 1529 c-12 -68 10 -133 66 -185 49 -47 93 -65 153 -65 67 0 121
26 169 83 43 49 48 67 44 134 l-3 49 -17 -35 c-23 -49 -59 -85 -106 -109 -46
-24 -87 -27 -96 -8 -5 10 -7 10 -12 0 -8 -18 -29 -16 -72 6 -52 27 -84 64
-103 119 l-16 47 -7 -36z"/>
<path d="M1543 1524 c-4 -10 -8 -12 -13 -5 -4 8 -15 5 -33 -9 -31 -25 -37 -46
-8 -31 10 6 21 7 25 4 3 -3 6 -1 6 6 0 7 3 10 8 8 4 -3 15 6 25 19 10 13 13
24 7 24 -6 0 -13 -7 -17 -16z"/>
<path d="M1575 1491 c-3 -5 -1 -12 5 -16 12 -7 30 2 30 16 0 12 -27 12 -35 0z"/>
<path d="M1516 1445 c-3 -8 -13 -15 -22 -15 -24 0 -13 -9 24 -19 42 -13 59 7
27 31 -20 15 -24 15 -29 3z"/>
<path d="M3471 1299 c-39 -23 -41 -60 -6 -94 30 -31 47 -31 81 -2 l26 23 -20
41 c-26 50 -41 56 -81 32z"/>
<path d="M2040 1472 c-45 -36 15 -81 65 -48 32 21 32 44 -1 56 -34 13 -38 13
-64 -8z"/>
<path d="M2200 1372 c-31 -25 -18 -54 23 -50 41 4 59 34 33 54 -25 18 -29 18
-56 -4z"/>
<path d="M2037 1363 c-14 -13 -6 -41 13 -46 40 -10 81 17 64 44 -6 10 -67 12
-77 2z"/>
<path d="M1884 1346 c-14 -37 17 -63 62 -52 20 5 25 12 22 34 -3 23 -8 27 -41
30 -26 2 -39 -1 -43 -12z"/>
<path d="M2031 1242 c-17 -31 7 -49 60 -44 20 2 31 26 23 47 -9 22 -71 20 -83
-3z"/>
<path d="M2849 1452 c-21 -34 -86 -75 -105 -68 -15 6 -15 4 -3 -11 11 -15 10
-15 -9 1 -22 19 -22 19 -43 0 -57 -51 -81 -158 -56 -245 37 -126 131 -194 267
-194 128 1 214 61 260 184 18 50 20 65 11 118 -10 61 -32 116 -51 128 -6 4 -7
-1 -3 -11 4 -12 3 -15 -6 -10 -7 4 -10 3 -9 -5 2 -6 -3 -14 -9 -16 -7 -3 -13
2 -13 11 0 23 -64 66 -107 72 -31 4 -34 3 -15 -5 34 -16 26 -19 -22 -10 -26 5
-58 4 -78 -1 -43 -13 -47 -12 -24 5 11 8 38 16 60 16 37 1 38 2 11 8 -20 4
-31 14 -35 31 l-6 25 -15 -23z m131 -90 c46 -23 50 -51 10 -91 -24 -24 -31
-38 -28 -62 4 -43 -17 -48 -37 -9 -13 25 -19 29 -30 20 -8 -6 -15 -21 -17 -33
-5 -37 -33 -27 -35 13 -5 71 -10 96 -23 119 -11 22 -10 27 10 43 29 23 104 24
150 0z"/>
<path d="M2317 1242 c-37 -41 -7 -93 33 -57 26 24 27 75 2 75 -11 0 -26 -8
-35 -18z"/>
<path d="M2157 1122 c-21 -23 -22 -46 -3 -61 18 -15 41 -5 54 24 22 48 -16 75
-51 37z"/>
<path d="M2333 1094 c-12 -19 -14 -30 -6 -43 15 -23 46 -20 59 7 27 54 -20 86
-53 36z"/>
<path d="M2191 974 c-23 -29 -25 -42 -12 -63 8 -12 13 -12 34 2 31 20 43 53
27 72 -17 21 -26 19 -49 -11z"/>
<path d="M1797 1196 c-9 -22 31 -66 59 -66 30 0 31 19 3 54 -22 28 -54 34 -62
12z"/>
<path d="M1966 1104 c-9 -23 20 -64 44 -64 26 0 33 15 19 42 -21 40 -52 50
-63 22z"/>
<path d="M1839 1044 c-11 -13 -10 -20 2 -42 28 -50 86 -33 60 17 -18 32 -46
44 -62 25z"/>
<path d="M1987 958 c-7 -21 14 -55 41 -67 42 -20 51 18 14 62 -18 20 -48 23
-55 5z"/>
<path d="M2387 886 c-15 -43 35 -119 87 -132 42 -10 95 21 116 68 11 24 20 51
20 61 0 25 -25 21 -38 -7 -8 -17 -22 -27 -47 -32 -19 -3 -35 -10 -35 -15 0
-19 -24 -7 -61 29 -21 22 -40 34 -42 28z"/>
<path d="M2020 4223 c14 -9 28 -22 32 -27 5 -7 8 -4 8 6 0 17 -28 38 -52 38
-7 0 -1 -8 12 -17z"/>
<path d="M2495 4220 c-3 -5 -2 -10 4 -10 5 0 13 5 16 10 3 6 2 10 -4 10 -5 0
-13 -4 -16 -10z"/>
<path d="M3633 3801 c-13 -11 -18 -23 -13 -30 5 -9 14 -4 29 18 25 34 18 40
-16 12z"/>
<path d="M987 3732 c-23 -25 -21 -46 7 -79 28 -31 44 -27 79 19 19 25 19 27 1
52 -23 30 -64 34 -87 8z"/>
<path d="M3979 3484 c-21 -23 -22 -26 -5 -23 10 2 22 14 27 27 11 28 8 28 -22
-4z"/>
<path d="M3950 3401 c-19 -10 -48 -34 -64 -54 -25 -31 -29 -46 -30 -96 -1 -51
4 -66 29 -102 17 -23 46 -50 65 -60 125 -67 278 61 240 200 -29 108 -146 163
-240 112z m130 -36 c31 -16 60 -61 60 -93 0 -23 -82 -102 -105 -102 -27 0 -76
30 -69 42 5 8 1 9 -10 5 -9 -4 -15 -3 -12 2 3 5 -1 14 -9 21 -29 24 -17 -34
13 -62 58 -57 102 -56 160 3 32 33 43 30 17 -5 -78 -103 -218 -52 -218 80 0
92 93 150 173 109z"/>
<path d="M850 3231 c-18 -35 -11 -43 19 -19 35 27 38 38 11 38 -10 0 -24 -9
-30 -19z"/>
<path d="M4244 3187 c5 -21 4 -27 -5 -21 -8 4 -9 3 -5 -4 4 -7 2 -12 -4 -12
-6 0 -8 -5 -4 -11 5 -8 9 -8 14 1 6 9 9 9 13 -1 3 -8 4 3 2 25 -3 21 -7 42
-11 45 -4 3 -4 -7 0 -22z"/>
<path d="M3975 3011 c-40 -17 -59 -50 -63 -111 -5 -69 9 -99 61 -130 75 -46
162 -6 186 88 10 36 9 48 -8 86 -12 28 -31 50 -50 60 -32 17 -93 20 -126 7z
m102 -53 c29 -27 29 -33 1 -34 -47 -3 -91 -14 -104 -25 -11 -9 -14 -7 -14 14
0 29 41 67 73 67 11 0 31 -10 44 -22z m-63 -138 c21 -7 34 -6 56 5 40 21 50
18 21 -5 -35 -30 -99 -22 -123 14 -13 19 -8 32 6 14 7 -10 25 -22 40 -28z"/>
<path d="M4276 2985 c4 -8 11 -15 16 -15 6 0 5 6 -2 15 -7 8 -14 15 -16 15 -2
0 -1 -7 2 -15z"/>
<path d="M794 2832 c6 -84 13 -102 40 -103 20 0 20 -1 1 -8 -16 -7 -13 -9 18
-15 43 -8 77 0 77 17 -1 15 -25 48 -31 42 -3 -2 -5 4 -6 14 -1 10 -24 42 -52
69 l-51 51 4 -67z m64 -49 c-4 -36 -38 -45 -38 -10 0 27 7 37 27 37 10 0 13
-9 11 -27z"/>
<path d="M4308 2812 c18 -17 28 -32 23 -38 -5 -5 -5 -18 -1 -29 7 -17 12 -11
9 11 0 4 5 10 12 15 10 6 4 16 -21 38 -19 17 -39 31 -44 31 -5 0 5 -13 22 -28z"/>
<path d="M546 2780 l-28 -18 23 -12 c30 -16 59 -46 59 -61 0 -6 10 3 23 22 28
42 32 79 9 79 -9 0 -26 2 -37 5 -11 2 -33 -4 -49 -15z"/>
<path d="M680 2759 c0 -5 5 -7 10 -4 6 3 10 8 10 11 0 2 -4 4 -10 4 -5 0 -10
-5 -10 -11z"/>
<path d="M4290 2745 c-7 -8 -8 -15 -3 -15 6 0 15 -15 20 -32 l10 -33 -1 42
c-2 50 -8 59 -26 38z"/>
<path d="M4277 2691 c-4 -17 -3 -21 5 -13 5 5 8 16 6 23 -3 8 -7 3 -11 -10z"/>
<path d="M646 2535 c-47 -17 -103 -68 -122 -114 -37 -89 -5 -202 72 -250 61
-40 117 -47 188 -27 64 19 73 29 54 59 -8 12 -20 43 -27 69 -17 60 -36 68 -62
24 -11 -19 -25 -36 -32 -39 -20 -7 -71 1 -75 13 -2 5 -8 7 -13 4 -6 -3 -16 0
-24 6 -12 10 -15 9 -15 -5 0 -23 57 -75 84 -76 11 0 30 -5 41 -10 14 -6 6 -7
-25 -3 -119 16 -174 137 -109 237 26 39 84 77 117 77 27 0 37 17 22 35 -15 18
-24 18 -74 0z m127 -342 c-7 -2 -19 -2 -25 0 -7 3 -2 5 12 5 14 0 19 -2 13 -5z"/>
<path d="M4040 2156 c0 -23 22 -31 35 -13 7 10 31 17 66 20 45 3 42 4 -23 5
-62 2 -78 -1 -78 -12z m30 -6 c0 -5 -5 -10 -11 -10 -5 0 -7 5 -4 10 3 6 8 10
11 10 2 0 4 -4 4 -10z"/>
<path d="M4203 2155 c0 -8 15 -19 33 -25 18 -6 35 -16 38 -23 2 -7 5 -2 5 10
1 12 4 28 7 37 5 13 -2 16 -38 16 -33 0 -45 -4 -45 -15z"/>
<path d="M4305 2101 c0 -38 -3 -67 -7 -64 -5 2 -9 -7 -9 -21 -1 -14 -2 -32 -3
-38 -3 -23 16 -56 35 -61 23 -6 34 12 44 68 4 22 9 49 12 60 2 11 7 44 10 73
l6 52 -44 0 -44 0 0 -69z"/>
<path d="M550 2121 c0 -12 6 -21 15 -21 13 0 19 -11 17 -31 -1 -3 13 -6 31 -6
18 0 26 2 19 5 -6 2 -9 8 -6 14 4 6 -2 8 -16 3 -13 -4 -20 -3 -17 2 7 10 -1
22 -25 42 -16 12 -18 11 -18 -8z"/>
<path d="M4252 2090 c0 -14 2 -19 5 -12 2 6 2 18 0 25 -3 6 -5 1 -5 -13z"/>
<path d="M791 2079 c-23 -19 -23 -19 -2 -19 12 0 19 -4 16 -10 -4 -6 1 -7 11
-3 16 6 16 7 0 19 -13 9 -14 13 -4 17 7 2 11 7 8 10 -3 3 -16 -3 -29 -14z"/>
<path d="M561 2054 c-1 -6 7 -18 16 -25 9 -8 14 -9 10 -2 -4 6 -4 13 0 16 5 2
3 2 -4 1 -6 -2 -14 2 -17 9 -3 8 -5 8 -5 1z"/>
<path d="M4089 1989 c-9 -5 -10 -11 -4 -18 7 -6 16 -5 28 3 14 11 15 15 4 19
-8 3 -20 1 -28 -4z"/>
<path d="M580 1965 c0 -8 2 -15 4 -15 2 0 6 7 10 15 3 8 1 15 -4 15 -6 0 -10
-7 -10 -15z"/>
<path d="M767 1949 c-27 -16 -47 -64 -47 -117 0 -40 5 -53 29 -76 34 -32 104
-46 140 -26 31 16 61 69 61 107 0 44 -28 99 -57 112 -30 14 -102 14 -126 0z
m82 -40 c37 -13 42 -28 6 -22 -13 3 -39 0 -57 -6 l-32 -11 24 25 c13 14 24 25
25 25 1 0 16 -5 34 -11z m11 -139 c-20 -13 -33 -13 -25 0 3 6 14 10 23 10 15
0 15 -2 2 -10z"/>
<path d="M4290 1895 c-2 -11 -4 -24 -4 -30 -1 -5 -7 -20 -14 -32 -7 -12 -12
-30 -12 -40 0 -10 -7 -30 -14 -45 -8 -16 -11 -28 -6 -28 4 0 11 6 13 13 4 9 6
9 6 -1 1 -8 -8 -16 -19 -19 -15 -4 -19 -11 -15 -27 5 -16 4 -18 -4 -6 -8 12
-12 10 -19 -10 -5 -14 -8 -28 -5 -32 2 -5 -2 -8 -10 -8 -8 0 -18 -7 -21 -16
-6 -14 -1 -16 36 -10 24 4 48 13 54 21 16 21 67 185 60 192 -3 4 -9 -8 -12
-26 -10 -47 -22 -47 -21 1 1 25 7 43 14 43 6 0 15 3 19 8 4 4 2 7 -4 7 -6 0
-13 15 -15 33 -2 19 -5 24 -7 12z"/>
<path d="M4031 1838 c-17 -17 -31 -39 -31 -47 0 -23 42 -79 64 -85 33 -8 87
46 86 87 -1 19 -43 64 -66 71 -16 5 -29 -2 -53 -26z"/>
<path d="M626 1852 c-8 -13 3 -42 15 -42 5 0 8 -3 7 -7 -3 -14 44 -83 63 -94
17 -9 18 -7 7 15 -6 14 -15 23 -21 19 -6 -3 -7 -1 -3 6 8 12 -15 41 -33 41 -6
0 -8 7 -5 15 7 17 -21 61 -30 47z"/>
<path d="M1028 1833 c7 -3 16 -2 19 1 4 3 -2 6 -13 5 -11 0 -14 -3 -6 -6z"/>
<path d="M4291 1814 c0 -11 3 -14 6 -6 3 7 2 16 -1 19 -3 4 -6 -2 -5 -13z"/>
<path d="M855 1654 c-47 -24 -73 -53 -91 -100 -55 -143 98 -274 237 -204 93
48 115 182 41 263 -46 52 -131 70 -187 41z m114 -38 c62 -32 80 -105 36 -146
-23 -22 -25 -22 -25 -4 0 13 -5 10 -16 -13 -9 -18 -21 -30 -26 -27 -5 3 -14 2
-21 -3 -19 -14 -42 -9 -41 9 1 9 -4 14 -11 12 -14 -6 -14 -21 -1 -43 13 -20
101 -9 136 18 22 15 28 17 23 6 -8 -22 -76 -55 -111 -55 -58 0 -112 67 -112
137 0 45 20 77 64 104 37 23 67 24 105 5z"/>
<path d="M810 1472 c0 -6 8 -20 18 -33 l19 -22 -2 22 c-1 22 -35 53 -35 33z"/>
<path d="M906 1468 c3 -4 9 -8 15 -8 5 0 9 4 9 8 0 5 -7 9 -15 9 -8 0 -12 -4
-9 -9z"/>
<path d="M3660 1390 c0 -5 7 -7 15 -4 8 4 15 8 15 10 0 2 -7 4 -15 4 -8 0 -15
-4 -15 -10z"/>
<path d="M3693 1386 c-12 -14 -7 -26 10 -26 6 0 7 3 4 7 -4 3 -2 12 4 20 15
17 -2 16 -18 -1z"/>
<path d="M3793 1345 c-53 -37 -33 -135 26 -135 37 0 61 25 31 33 -26 7 -45 54
-29 73 25 30 59 3 59 -48 0 -18 2 -20 10 -8 15 23 12 36 -17 69 -31 35 -48 38
-80 16z"/>
<path d="M1693 1013 c-20 -7 -15 -26 11 -45 22 -16 22 -15 20 5 -1 12 -3 28
-3 35 -1 13 -7 14 -28 5z"/>
<path d="M1655 855 c-42 -47 -75 -88 -72 -91 6 -7 39 26 106 104 81 94 56 84
-34 -13z"/>
<path d="M1795 790 c-9 -15 68 -88 102 -96 27 -7 53 11 53 36 0 30 -18 40
-126 67 -12 3 -25 -1 -29 -7z"/>
<path d="M2722 749 c-23 -22 -42 -49 -42 -59 0 -20 73 -90 94 -90 18 0 86 70
86 88 0 15 -60 92 -71 92 -5 0 -11 -11 -15 -25 -7 -29 -34 -56 -34 -33 0 7 7
24 16 36 27 39 10 34 -34 -9z"/>
<path d="M3245 774 c-11 -8 -27 -19 -35 -24 -8 -5 -12 -11 -9 -14 3 -4 17 3
31 14 14 10 27 17 30 15 3 -3 5 2 5 10 0 8 -1 15 -1 15 -1 0 -10 -8 -21 -16z"/>
<path d="M2230 715 c0 -8 -6 -24 -12 -35 -23 -37 24 -75 61 -51 11 7 10 17 -8
55 -23 46 -41 60 -41 31z"/>
<path d="M3065 690 c4 -6 11 -8 16 -5 14 9 11 15 -7 15 -8 0 -12 -5 -9 -10z"/>
<path d="M3118 683 c7 -3 16 -2 19 1 4 3 -2 6 -13 5 -11 0 -14 -3 -6 -6z"/>
</g>
</svg>
